<svg xmlns="http://www.w3.org/2000/svg" width="36" height="20" viewBox="0 0 36 20">
    <g fill="none" fill-rule="evenodd">
        <g transform="translate(0 9)">
            <path fill="#1EB2B9" d="M-0.0001,0.1125 C1.3009,3.9685 3.0819,5.7305 7.3959,8.4115 C6.9259,7.4525 8.2359,6.3545 7.9549,5.3045 C4.9499,5.0195 1.6129,2.3495 -0.0001,0.1125" />
        </g>
        <g transform="translate(24)">
            <path fill="#1EB2B9" d="M9.513,2.3605 C8.832,1.3375 7.732,0.5125 6.45,0.6115 C5.026,0.7225 3.749,2.0205 2.881,3.0545 C2.369,3.6645 0.479,6.1565 0.004,6.7325 C3.232,8.8185 7.075,10.0345 11.2,10.0495 C11.631,7.6935 10.909,4.4605 9.513,2.3605" />
        </g>
        <path fill="#3FA9D2" d="M15.1883,1.6013 C14.0773,1.1063 12.9373,0.6483 11.7583,0.3403 C10.8193,0.0943 9.7953,-0.1067 8.8263,0.0633 C7.9863,0.2093 7.2893,0.6933 6.9723,1.5023 C6.3313,3.1513 6.9303,5.0163 7.4843,6.5813 C8.4593,9.3343 9.4133,12.0873 7.9543,14.3043 C14.4163,14.3043 20.1883,11.3563 24.0033,6.7323 C23.2583,6.2513 17.3353,2.5583 15.1883,1.6013"/>
        <g transform="translate(5 6)">
            <path fill="#076CA0" d="M19.0033,0.7326 C15.1893,5.3556 9.4163,8.3046 2.9543,8.3046 L2.9493,8.3046 C2.4843,8.9786 1.4403,10.0306 0.9643,10.5396 C1.4453,10.8596 1.8353,11.1026 2.3963,11.4116 C2.3993,11.4136 2.4023,11.4156 2.4043,11.4166 C2.5813,11.5136 2.7573,11.6076 2.9363,11.7006 C2.9523,11.7076 2.9673,11.7156 2.9823,11.7236 C3.1643,11.8166 3.3473,11.9066 3.5323,11.9956 C3.5333,11.9966 3.5343,11.9966 3.5363,11.9976 C3.9193,12.1796 4.3103,12.3496 4.7053,12.5096 C4.7133,12.5136 4.7213,12.5156 4.7293,12.5186 C4.9083,12.5896 5.0893,12.6596 5.2723,12.7266 C5.3033,12.7376 5.3343,12.7496 5.3643,12.7606 C5.5313,12.8206 5.7003,12.8796 5.8693,12.9356 C5.8983,12.9456 5.9273,12.9566 5.9573,12.9656 C6.3533,13.0956 6.7533,13.2146 7.1613,13.3216 C7.1813,13.3256 7.2023,13.3316 7.2233,13.3366 C7.3973,13.3806 7.5723,13.4246 7.7483,13.4656 C7.7993,13.4776 7.8523,13.4886 7.9033,13.5006 C8.0533,13.5346 8.2023,13.5646 8.3533,13.5956 C8.4093,13.6076 8.4673,13.6176 8.5243,13.6286 C8.6843,13.6596 8.8433,13.6876 9.0033,13.7136 C9.0463,13.7216 9.0893,13.7306 9.1313,13.7366 C9.3363,13.7686 9.5413,13.7986 9.7463,13.8256 C9.7773,13.8296 9.8093,13.8336 9.8393,13.8376 C10.0103,13.8586 10.1823,13.8776 10.3553,13.8956 C10.4223,13.9016 10.4923,13.9086 10.5603,13.9136 C10.6983,13.9256 10.8363,13.9376 10.9753,13.9476 C11.0503,13.9536 11.1263,13.9576 11.2003,13.9626 C11.3403,13.9706 11.4803,13.9776 11.6203,13.9826 C11.6903,13.9846 11.7593,13.9876 11.8293,13.9906 C12.0253,13.9966 12.2223,14.0006 12.4213,14.0006 L12.4513,14.0006 C19.9623,14.0006 26.5443,10.0176 30.2003,4.0496 C26.0743,4.0346 22.2323,2.8186 19.0033,0.7326"/>
        </g>
    </g>
</svg>
